<svg xmlns="http://www.w3.org/2000/svg" viewBox="0 0 24 24">
  <circle cx="12" cy="12" r="11" fill="#bd081c" />
  <path
    fill="#fff"
    d="M12 5.2c-3.3 0-6.1 2.4-6.1 5.8 0 2.5 1.4 4.5 3.8 5.2.1 0 .2 0 .2-.1l.5-2c0 .1 0 .1-.1.1-.6-.2-.7-.8-.6-1.4l.6-2.6c.1-.3 0-.5-.2-.8-.3-.4-.4-1.1 0-1.7.4-.5 1-.8 1.6-.8 1.1 0 1.7.8 1.7 1.8 0 1.2-.8 2.9-.8 3.5 0 .7.5 1 1.1 1 1.3 0 2.2-1.7 2.2-3.6 0-1.6-1.1-2.8-3.1-2.8-2.3 0-3.7 1.6-3.7 3.3 0 .6.2 1.2.5 1.5.1.2.1.3.1.5l-.2.8c-.1.3-.4.4-.7.3-1.2-.5-1.7-1.7-1.7-3.1 0-2.4 2-4.6 5.1-4.6 2.7 0 4.6 1.9 4.6 4.3 0 2.9-1.6 5-3.9 5-.8 0-1.6-.4-1.9-.9l-.5 1.8c-.2.7-.7 1.6-1 2.2.7.2 1.3.3 2 .3 3.2 0 5.9-2.5 5.9-6.2C18.1 7.7 15.4 5.2 12 5.2z"
  />
</svg>
